<svg xmlns="http://www.w3.org/2000/svg" viewBox="0 0 2260.46 393.80" role="img" aria-label="PaintMatchPen">
<title>PaintMatchPen</title>

  <path d="M180.4 127.16000000000001V130.02Q180.4 144.10000000000002 174.24 155.54000000000002Q168.08 166.98000000000002 157.08 173.47000000000003Q146.08 179.96 132.0 179.96H95.70000000000002V228.8H47.080000000000005V77.44H132.0Q146.08 77.44 157.08 83.93Q168.08 90.42000000000002 174.24 101.75000000000001Q180.4 113.08000000000001 180.4 127.16000000000001ZM95.70000000000002 144.54000000000002H115.72Q123.42000000000002 144.54000000000002 127.27000000000001 140.58Q131.12 136.62 131.12 129.8V128.04000000000002Q131.12 121.00000000000001 127.27000000000001 117.15Q123.42000000000002 113.30000000000001 115.72 113.30000000000001H95.70000000000002Z M320.32000000000005 147.84000000000003V193.16000000000003Q320.32000000000005 196.9 322.08000000000004 199.32Q323.84000000000003 201.74 327.36 201.74H335.28000000000003V227.04000000000002Q334.62 227.48000000000002 331.87 228.47000000000003Q329.12 229.46 324.06 230.45Q319.0 231.44 312.40000000000003 231.44Q299.64 231.44 291.39 227.59Q283.14 223.74 280.06 216.92000000000002Q271.70000000000005 223.52 261.36 227.48000000000002Q251.02 231.44 237.16000000000003 231.44Q196.24 231.44 196.24 198.88Q196.24 181.94 205.37 173.03Q214.5 164.12 231.66000000000003 160.82Q248.82000000000002 157.52 276.54 157.52V151.8Q276.54 144.98000000000002 271.81000000000006 141.46Q267.08000000000004 137.94 259.6 137.94Q252.78000000000003 137.94 247.83000000000004 140.36Q242.88000000000002 142.78000000000003 242.88000000000002 148.06V148.94H199.76000000000002Q199.54000000000002 147.84000000000003 199.54000000000002 145.86Q199.54000000000002 129.36 215.27 119.68Q231.0 110.00000000000001 260.26 110.00000000000001Q286.88 110.00000000000001 303.6 118.91000000000001Q320.32000000000005 127.82000000000001 320.32000000000005 147.84000000000003ZM240.02 193.16000000000003Q240.02 204.16000000000003 254.98000000000002 204.16000000000003Q263.56 204.16000000000003 270.05 199.54000000000002Q276.54 194.92000000000002 276.54 188.10000000000002V178.20000000000002Q257.84000000000003 178.20000000000002 248.93 182.27Q240.02 186.34 240.02 193.16000000000003Z M351.12 99.0V69.30000000000001H394.9V99.0ZM351.12 228.8V112.64000000000001H394.9V228.8Z M543.4 153.56V228.8H499.62V158.84000000000003Q499.62 151.36 495.77 146.85000000000002Q491.91999999999996 142.34000000000003 484.88 142.34000000000003Q476.74 142.34000000000003 471.68 147.62Q466.62 152.9 466.62 160.60000000000002V228.8H422.84V112.64000000000001H458.7L461.56 130.24Q468.38 121.00000000000001 479.49 115.50000000000001Q490.59999999999997 110.00000000000001 502.91999999999996 110.00000000000001Q523.16 110.00000000000001 533.28 121.22Q543.4 132.44 543.4 153.56Z M647.02 112.64000000000001V142.34000000000003H622.38V186.56Q622.38 194.48000000000002 625.02 198.11Q627.66 201.74 634.7 201.74H647.02V227.48000000000002Q641.74 229.24 633.38 230.34Q625.02 231.44 618.86 231.44Q599.5 231.44 589.05 224.4Q578.6 217.36 578.6 200.42000000000002V142.34000000000003H562.32V112.64000000000001H580.36L589.8199999999999 77.44H622.38V112.64000000000001Z" fill="#FFFFFF"/>
  <path d="M800.3599999999999 228.8 811.9570860047163 174.24Q814.108158408817 164.12 817.1461369218362 153.45000000000002Q820.1841154348552 142.78000000000003 822.6072760725797 135.52Q825.030436710304 128.26 825.6712987024106 126.28000000000002H824.7912987024106L775.06 228.8H737.0L730.5845362588432 126.50000000000001H729.7045362588432Q729.5036742667365 128.48000000000002 728.9738948507959 135.63000000000002Q728.4441154348552 142.78000000000003 727.0561369218361 153.45000000000002Q725.668158408817 164.12 723.5170860047164 174.24L711.92 228.8H667.26L699.4325611743745 77.44H768.0725611743745L772.3878710781148 164.78000000000003H773.2678710781147L814.4925611743745 77.44H880.7125611743745L848.54 228.8Z M1009.628579232805 147.84000000000003 999.9955158579196 193.16000000000003Q999.2005543172737 196.9 1000.4461674380323 199.32Q1001.6917805587908 201.74 1005.2117805587908 201.74H1013.1317805587908L1007.7540995485392 227.04000000000002Q1007.0005746614045 227.48000000000002 1004.0401436653511 228.47000000000003Q1001.0797126692978 229.46 995.8092816732444 230.45Q990.5388506771911 231.44 983.9388506771911 231.44Q971.1788506771911 231.44 963.7471934396208 227.59Q956.3155362020503 223.74 954.6851719526398 216.92000000000002Q944.9222986456177 223.52 933.7405746614045 227.48000000000002Q922.5588506771911 231.44 908.6988506771911 231.44Q867.7788506771911 231.44 874.6996923251671 198.88Q878.3004004798572 181.94 889.3242794443372 173.03Q900.3481584088171 164.12 918.2095950623282 160.82Q936.0710317158391 157.52 963.7910317158392 157.52L965.0068552485917 151.8Q966.4564909991813 144.98000000000002 962.4746900962598 141.46Q958.4928891933382 137.94 951.0128891933382 137.94Q944.1928891933383 137.94 938.7285023140968 140.36Q933.2641154348553 142.78000000000003 932.1418167892376 148.06L931.954767014968 148.94H888.834767014968Q888.848579232805 147.84000000000003 889.2694412249116 145.86Q892.776624492467 129.36 910.5641720094328 119.68Q928.3517195263986 110.00000000000001 957.6117195263987 110.00000000000001Q984.2317195263986 110.00000000000001 999.0578405619187 118.91000000000001Q1013.8839615974389 127.82000000000001 1009.628579232805 147.84000000000003ZM919.6955158579196 193.16000000000003Q917.3573936795493 204.16000000000003 932.3173936795494 204.16000000000003Q940.8973936795494 204.16000000000003 948.369404994465 199.54000000000002Q955.8414163093804 194.92000000000002 957.29105205997 188.10000000000002L959.3953620205032 178.20000000000002Q940.6953620205031 178.20000000000002 930.9202568145062 182.27Q921.1451516085092 186.34 919.6955158579196 193.16000000000003Z M1123.8105702035898 112.64000000000001 1117.49764032199 142.34000000000003H1092.8576403219902L1083.4583891649418 186.56Q1081.774941196515 194.48000000000002 1083.6433608776529 198.11Q1085.5117805587909 201.74 1092.5517805587908 201.74H1104.8717805587908L1099.4005746614043 227.48000000000002Q1093.7464751128653 229.24 1085.1526628950282 230.34Q1076.5588506771912 231.44 1070.3988506771911 231.44Q1051.0388506771912 231.44 1042.085248871348 224.4Q1033.1316470655051 217.36 1036.7323552201951 200.42000000000002L1049.0776403219902 142.34000000000003H1032.7976403219902L1039.1105702035898 112.64000000000001H1057.1505702035897L1074.0925611743746 77.44H1106.6525611743746L1099.1705702035897 112.64000000000001Z M1258.1701697237327 159.5H1215.7101697237326Q1219.918789644799 139.70000000000002 1198.3587896447991 139.70000000000002Q1176.798789644799 139.70000000000002 1171.5146335216823 164.56L1168.8491742383403 177.10000000000002Q1163.611780558791 201.74 1186.0517805587908 201.74Q1208.4917805587909 201.74 1212.7939253669922 181.5H1253.4939253669922Q1248.1162443567405 206.8 1227.7875475169658 219.12Q1207.4588506771913 231.44 1178.8588506771912 231.44Q1148.2788506771913 231.44 1134.1722217269096 216.04000000000002Q1120.065592776628 200.64000000000001 1126.425285101795 170.72000000000003Q1132.784977426962 140.8 1153.4383484766804 125.4Q1174.0917195263987 110.00000000000001 1204.6717195263986 110.00000000000001Q1233.2717195263988 110.00000000000001 1248.3864039084078 122.21000000000001Q1263.5010882904166 134.42000000000002 1258.1701697237327 159.5Z M1371.4317195263986 110.00000000000001Q1391.6717195263986 110.00000000000001 1399.406834904461 121.22Q1407.1419502825233 132.44 1402.6527557000525 153.56L1386.66 228.8H1342.88L1357.750457054435 158.84000000000003Q1359.3403801357267 151.36 1356.4490102288585 146.85000000000002Q1353.5576403219902 142.34000000000003 1346.5176403219903 142.34000000000003Q1338.3776403219902 142.34000000000003 1332.1953416763724 147.62Q1326.0130430307547 152.9 1324.3763575058956 160.60000000000002L1309.88 228.8H1266.1000000000001L1300.0027715863687 69.30000000000001H1343.7827715863687L1331.9986358073825 124.74000000000001Q1340.5350340015395 117.70000000000002 1350.8133767639692 113.85000000000002Q1361.0917195263987 110.00000000000001 1371.4317195263986 110.00000000000001Z" fill="#FFFFFF"/>
  <rect x="1421.64" y="36.30" width="189.20" height="198.00" rx="18.92" ry="18.92" fill="#012169"/>
  <line x1="1434.88" y1="56.10" x2="1597.60" y2="137.46" stroke="#FFF" stroke-width="16.27"/>
  <line x1="1597.60" y1="56.10" x2="1434.88" y2="137.46" stroke="#FFF" stroke-width="16.27"/>
  <line x1="1434.88" y1="56.10" x2="1597.60" y2="137.46" stroke="#C8102E" stroke-width="8.14"/>
  <line x1="1597.60" y1="56.10" x2="1434.88" y2="137.46" stroke="#C8102E" stroke-width="8.14"/>
  <line x1="1516.24" y1="56.10" x2="1516.24" y2="137.46" stroke="#FFF" stroke-width="29.29"/>
  <line x1="1434.88" y1="96.78" x2="1597.60" y2="96.78" stroke="#FFF" stroke-width="29.29"/>
  <line x1="1516.24" y1="56.10" x2="1516.24" y2="137.46" stroke="#C8102E" stroke-width="16.27"/>
  <line x1="1434.88" y1="96.78" x2="1597.60" y2="96.78" stroke="#C8102E" stroke-width="16.27"/>
  <path d="M1496.90219008 203.17046464Q1489.2786303999999 203.17046464 1485.11821216 199.73056576Q1480.95779392 196.29066688 1480.95779392 189.73626496V170.63088064000002H1491.23100544V189.5968096Q1491.23100544 192.29294656000002 1492.67204416 193.8966832Q1494.11308288 195.50041984 1496.85570496 195.50041984Q1499.59832704 195.50041984 1501.06260832 193.87344064Q1502.5268896 192.24646144000002 1502.5268896 189.5968096V170.63088064000002H1512.80010112V189.73626496Q1512.80010112 196.29066688 1508.66292544 199.73056576Q1504.52574976 203.17046464 1496.90219008 203.17046464Z M1541.3419648 170.63088064000002H1554.07888768L1542.59706304 183.7861696L1554.31131328 202.6126432H1542.17869696L1535.5313248 190.89839296L1529.9531104 195.45393472V202.6126432H1519.67989888V170.63088064000002H1529.9531104V184.29750592000002Z" fill="#FFCC00"/>
  <rect x="1632.84" y="33.79" width="546.43" height="203.02" rx="22.0" ry="22.0" fill="#FFF" stroke="#0A0A0A" stroke-width="8.36"/>
  <path d="M1817.288 110.82192V113.33872Q1817.288 125.72912 1811.8672000000001 135.79631999999998Q1806.4464 145.86352 1796.7664 151.57472Q1787.0864000000001 157.28592 1774.6960000000001 157.28592H1742.7520000000002V200.26512H1699.9664V67.06832H1774.6960000000001Q1787.0864000000001 67.06832 1796.7664 72.77951999999999Q1806.4464 78.49072 1811.8672000000001 88.46112Q1817.288 98.43152 1817.288 110.82192ZM1742.7520000000002 126.11632H1760.3696Q1767.1456 126.11632 1770.5336000000002 122.63152Q1773.9216000000001 119.14672 1773.9216000000001 113.14511999999999V111.59631999999999Q1773.9216000000001 105.40111999999999 1770.5336000000002 102.01311999999999Q1767.1456 98.62512 1760.3696 98.62512H1742.7520000000002Z M1839.7456 67.06832H1954.9376V99.01232H1882.5312000000001V117.40432H1944.4832000000001V147.99312H1882.5312000000001V168.32112H1956.2928000000002V200.26512H1839.7456Z M2074.776 200.26512 2018.8256 135.60272V200.26512H1979.5248V67.06832H2016.8896L2072.84 132.69871999999998V67.06832H2112.1408V200.26512Z" fill="#0A0A0A"/>
  <path d="M589.4020796842656 331.58400000000006H576.7608796842655V316.31160000000006L561.1452796842656 292.23040000000003H575.6740796842656L583.2244796842656 305.32920000000007H583.4532796842656L591.0036796842655 292.23040000000003H604.7888796842656L589.4020796842656 316.31160000000006Z" fill="#FFFFFF"/>
  <path d="M662.9040796842655 311.90720000000005Q662.9040796842655 321.86000000000007 657.3556796842656 327.06520000000006Q651.8072796842656 332.27040000000005 641.6256796842656 332.27040000000005Q631.4440796842656 332.27040000000005 625.9242796842656 327.09380000000004Q620.4044796842655 321.91720000000004 620.4044796842655 311.90720000000005Q620.4044796842655 301.89720000000005 625.9242796842656 296.72060000000005Q631.4440796842656 291.54400000000004 641.6256796842656 291.54400000000004Q651.8072796842656 291.54400000000004 657.3556796842656 296.7492000000001Q662.9040796842655 301.9544000000001 662.9040796842655 311.90720000000005ZM633.3316796842656 310.07680000000005V313.73760000000004Q633.3316796842656 317.9132000000001 635.4480796842656 320.3728000000001Q637.5644796842656 322.83240000000006 641.6256796842656 322.83240000000006Q645.6868796842656 322.83240000000006 647.8318796842656 320.3728000000001Q649.9768796842656 317.9132000000001 649.9768796842656 313.73760000000004V310.07680000000005Q649.9768796842656 305.9012000000001 647.8318796842656 303.4416000000001Q645.6868796842656 300.9820000000001 641.6256796842656 300.9820000000001Q637.5644796842656 300.9820000000001 635.4480796842656 303.4416000000001Q633.3316796842656 305.9012000000001 633.3316796842656 310.07680000000005Z" fill="#FFFFFF"/>
  <path d="M701.9144796842655 332.27040000000005Q692.5336796842655 332.27040000000005 687.4142796842655 328.03760000000005Q682.2948796842655 323.80480000000006 682.2948796842655 315.73960000000005V292.23040000000003H694.9360796842656V315.56800000000004Q694.9360796842656 318.88560000000007 696.7092796842655 320.85900000000004Q698.4824796842655 322.83240000000006 701.8572796842656 322.83240000000006Q705.2320796842655 322.83240000000006 707.0338796842655 320.83040000000005Q708.8356796842655 318.82840000000004 708.8356796842655 315.56800000000004V292.23040000000003H721.4768796842656V315.73960000000005Q721.4768796842656 323.80480000000006 716.3860796842655 328.03760000000005Q711.2952796842656 332.27040000000005 701.9144796842655 332.27040000000005Z" fill="#FFFFFF"/>
  <path d="M772.2704796842655 315.1104000000001 781.0220796842655 331.58400000000006H766.8364796842654L759.8580796842655 317.2268000000001H755.1676796842655V331.58400000000006H742.5264796842655V292.23040000000003H766.6076796842655Q770.8404796842655 292.23040000000003 773.8434796842655 293.86060000000003Q776.8464796842655 295.49080000000004 778.3622796842656 298.26500000000004Q779.8780796842655 301.03920000000005 779.8780796842655 304.29960000000005Q779.8780796842655 307.9032000000001 777.9332796842655 310.82040000000006Q775.9884796842655 313.73760000000004 772.2704796842655 315.1104000000001ZM763.4616796842655 301.21080000000006H755.1676796842655V308.4752000000001H763.4616796842655Q764.9488796842655 308.4752000000001 765.9784796842655 307.4170000000001Q767.0080796842655 306.3588000000001 767.0080796842655 304.81440000000003Q767.0080796842655 303.27000000000004 765.9784796842655 302.2404Q764.9488796842655 301.21080000000006 763.4616796842655 301.21080000000006Z" fill="#FFFFFF"/>
  <path d="" fill="#FFFFFF"/>
  <path d="M868.9384796842655 308.41800000000006H856.8692796842655Q856.8692796842655 304.98600000000005 855.0674796842655 302.98400000000004Q853.2656796842656 300.9820000000001 849.9480796842655 300.9820000000001Q846.1156796842655 300.9820000000001 844.3138796842655 303.3844000000001Q842.5120796842656 305.7868000000001 842.5120796842656 310.07680000000005V313.73760000000004Q842.5120796842656 317.97040000000004 844.3138796842655 320.4014000000001Q846.1156796842655 322.83240000000006 849.8336796842656 322.83240000000006Q853.4944796842656 322.83240000000006 855.3820796842656 320.9448000000001Q857.2696796842655 319.0572000000001 857.2696796842655 315.62520000000006H868.9384796842655Q868.9384796842655 323.69040000000007 863.9906796842656 327.98040000000003Q859.0428796842656 332.27040000000005 850.0052796842656 332.27040000000005Q839.9380796842655 332.27040000000005 834.7614796842655 327.1224000000001Q829.5848796842655 321.97440000000006 829.5848796842655 311.90720000000005Q829.5848796842655 301.84000000000003 834.7614796842655 296.692Q839.9380796842655 291.54400000000004 850.0052796842656 291.54400000000004Q858.7568796842655 291.54400000000004 863.8476796842656 295.9198Q868.9384796842655 300.29560000000004 868.9384796842655 308.41800000000006Z" fill="#FFFFFF"/>
  <path d="M914.6984796842655 331.58400000000006 913.0396796842656 326.03560000000004H899.2544796842656L897.5956796842655 331.58400000000006H884.6684796842655L899.0256796842656 292.23040000000003H913.7260796842655L928.0832796842656 331.58400000000006ZM901.8856796842656 317.2268000000001H910.4084796842656L906.2900796842655 303.2128000000001H906.0612796842655Z" fill="#FFFFFF"/>
  <path d="M975.1588796842656 315.1104000000001 983.9104796842655 331.58400000000006H969.7248796842655L962.7464796842655 317.2268000000001H958.0560796842656V331.58400000000006H945.4148796842655V292.23040000000003H969.4960796842655Q973.7288796842655 292.23040000000003 976.7318796842656 293.86060000000003Q979.7348796842656 295.49080000000004 981.2506796842656 298.26500000000004Q982.7664796842655 301.03920000000005 982.7664796842655 304.29960000000005Q982.7664796842655 307.9032000000001 980.8216796842655 310.82040000000006Q978.8768796842655 313.73760000000004 975.1588796842656 315.1104000000001ZM966.3500796842656 301.21080000000006H958.0560796842656V308.4752000000001H966.3500796842656Q967.8372796842656 308.4752000000001 968.8668796842655 307.4170000000001Q969.8964796842655 306.3588000000001 969.8964796842655 304.81440000000003Q969.8964796842655 303.27000000000004 968.8668796842655 302.2404Q967.8372796842656 301.21080000000006 966.3500796842656 301.21080000000006Z" fill="#FFFFFF"/>
  <path d="M1001.7568796842655 331.58400000000006V320.2012000000001H1013.8832796842655V331.58400000000006Z" fill="#FFFFFF"/>
  <path d="M1097.4524796842657 331.58400000000006H1084.8112796842656V316.31160000000006L1069.1956796842655 292.23040000000003H1083.7244796842656L1091.2748796842654 305.32920000000007H1091.5036796842655L1099.0540796842656 292.23040000000003H1112.8392796842656L1097.4524796842657 316.31160000000006Z" fill="rgb(255,107,107)"/>
  <path d="M1170.9544796842656 311.90720000000005Q1170.9544796842656 321.86000000000007 1165.4060796842655 327.06520000000006Q1159.8576796842656 332.27040000000005 1149.6760796842657 332.27040000000005Q1139.4944796842656 332.27040000000005 1133.9746796842655 327.09380000000004Q1128.4548796842657 321.91720000000004 1128.4548796842657 311.90720000000005Q1128.4548796842657 301.89720000000005 1133.9746796842655 296.72060000000005Q1139.4944796842656 291.54400000000004 1149.6760796842657 291.54400000000004Q1159.8576796842656 291.54400000000004 1165.4060796842655 296.7492000000001Q1170.9544796842656 301.9544000000001 1170.9544796842656 311.90720000000005ZM1141.3820796842656 310.07680000000005V313.73760000000004Q1141.3820796842656 317.9132000000001 1143.4984796842655 320.3728000000001Q1145.6148796842656 322.83240000000006 1149.6760796842657 322.83240000000006Q1153.7372796842656 322.83240000000006 1155.8822796842655 320.3728000000001Q1158.0272796842657 317.9132000000001 1158.0272796842657 313.73760000000004V310.07680000000005Q1158.0272796842657 305.9012000000001 1155.8822796842655 303.4416000000001Q1153.7372796842656 300.9820000000001 1149.6760796842657 300.9820000000001Q1145.6148796842656 300.9820000000001 1143.4984796842655 303.4416000000001Q1141.3820796842656 305.9012000000001 1141.3820796842656 310.07680000000005Z" fill="rgb(255,135,86)"/>
  <path d="M1209.9648796842657 332.27040000000005Q1200.5840796842658 332.27040000000005 1195.4646796842658 328.03760000000005Q1190.3452796842657 323.80480000000006 1190.3452796842657 315.73960000000005V292.23040000000003H1202.9864796842658V315.56800000000004Q1202.9864796842658 318.88560000000007 1204.7596796842658 320.85900000000004Q1206.5328796842657 322.83240000000006 1209.9076796842658 322.83240000000006Q1213.2824796842658 322.83240000000006 1215.0842796842658 320.83040000000005Q1216.8860796842657 318.82840000000004 1216.8860796842657 315.56800000000004V292.23040000000003H1229.5272796842657V315.73960000000005Q1229.5272796842657 323.80480000000006 1224.4364796842656 328.03760000000005Q1219.3456796842656 332.27040000000005 1209.9648796842657 332.27040000000005Z" fill="rgb(255,165,68)"/>
  <path d="M1280.3208796842657 315.1104000000001 1289.0724796842658 331.58400000000006H1274.8868796842658L1267.9084796842658 317.2268000000001H1263.2180796842658V331.58400000000006H1250.5768796842658V292.23040000000003H1274.6580796842659Q1278.8908796842659 292.23040000000003 1281.8938796842658 293.86060000000003Q1284.8968796842657 295.49080000000004 1286.4126796842656 298.26500000000004Q1287.9284796842658 301.03920000000005 1287.9284796842658 304.29960000000005Q1287.9284796842658 307.9032000000001 1285.9836796842658 310.82040000000006Q1284.0388796842658 313.73760000000004 1280.3208796842657 315.1104000000001ZM1271.5120796842657 301.21080000000006H1263.2180796842658V308.4752000000001H1271.5120796842657Q1272.9992796842657 308.4752000000001 1274.0288796842658 307.4170000000001Q1275.0584796842659 306.3588000000001 1275.0584796842659 304.81440000000003Q1275.0584796842659 303.27000000000004 1274.0288796842658 302.2404Q1272.9992796842657 301.21080000000006 1271.5120796842657 301.21080000000006Z" fill="rgb(255,198,63)"/>
  <path d="" fill="rgb(220,213,74)"/>
  <path d="M1376.9888796842658 308.41800000000006H1364.919679684266Q1364.919679684266 304.98600000000005 1363.117879684266 302.98400000000004Q1361.3160796842658 300.9820000000001 1357.998479684266 300.9820000000001Q1354.166079684266 300.9820000000001 1352.364279684266 303.3844000000001Q1350.5624796842658 305.7868000000001 1350.5624796842658 310.07680000000005V313.73760000000004Q1350.5624796842658 317.97040000000004 1352.364279684266 320.4014000000001Q1354.166079684266 322.83240000000006 1357.8840796842658 322.83240000000006Q1361.5448796842659 322.83240000000006 1363.432479684266 320.9448000000001Q1365.320079684266 319.0572000000001 1365.320079684266 315.62520000000006H1376.9888796842658Q1376.9888796842658 323.69040000000007 1372.0410796842657 327.98040000000003Q1367.0932796842658 332.27040000000005 1358.055679684266 332.27040000000005Q1347.988479684266 332.27040000000005 1342.811879684266 327.1224000000001Q1337.635279684266 321.97440000000006 1337.635279684266 311.90720000000005Q1337.635279684266 301.84000000000003 1342.811879684266 296.692Q1347.988479684266 291.54400000000004 1358.055679684266 291.54400000000004Q1366.807279684266 291.54400000000004 1371.898079684266 295.9198Q1376.9888796842658 300.29560000000004 1376.9888796842658 308.41800000000006Z" fill="rgb(176,209,91)"/>
  <path d="M1437.220479684266 311.90720000000005Q1437.220479684266 321.86000000000007 1431.672079684266 327.06520000000006Q1426.1236796842659 332.27040000000005 1415.942079684266 332.27040000000005Q1405.7604796842659 332.27040000000005 1400.240679684266 327.09380000000004Q1394.720879684266 321.91720000000004 1394.720879684266 311.90720000000005Q1394.720879684266 301.89720000000005 1400.240679684266 296.72060000000005Q1405.7604796842659 291.54400000000004 1415.942079684266 291.54400000000004Q1426.1236796842659 291.54400000000004 1431.672079684266 296.7492000000001Q1437.220479684266 301.9544000000001 1437.220479684266 311.90720000000005ZM1407.648079684266 310.07680000000005V313.73760000000004Q1407.648079684266 317.9132000000001 1409.764479684266 320.3728000000001Q1411.880879684266 322.83240000000006 1415.942079684266 322.83240000000006Q1420.0032796842659 322.83240000000006 1422.148279684266 320.3728000000001Q1424.293279684266 317.9132000000001 1424.293279684266 313.73760000000004V310.07680000000005Q1424.293279684266 305.9012000000001 1422.148279684266 303.4416000000001Q1420.0032796842659 300.9820000000001 1415.942079684266 300.9820000000001Q1411.880879684266 300.9820000000001 1409.764479684266 303.4416000000001Q1407.648079684266 305.9012000000001 1407.648079684266 310.07680000000005Z" fill="rgb(104,199,129)"/>
  <path d="M1456.611279684266 292.23040000000003H1469.252479684266V321.51680000000005H1489.444079684266V331.58400000000006H1456.611279684266Z" fill="rgb(87,168,207)"/>
  <path d="M1548.188479684266 311.90720000000005Q1548.188479684266 321.86000000000007 1542.6400796842659 327.06520000000006Q1537.091679684266 332.27040000000005 1526.910079684266 332.27040000000005Q1516.728479684266 332.27040000000005 1511.208679684266 327.09380000000004Q1505.688879684266 321.91720000000004 1505.688879684266 311.90720000000005Q1505.688879684266 301.89720000000005 1511.208679684266 296.72060000000005Q1516.728479684266 291.54400000000004 1526.910079684266 291.54400000000004Q1537.091679684266 291.54400000000004 1542.6400796842659 296.7492000000001Q1548.188479684266 301.9544000000001 1548.188479684266 311.90720000000005ZM1518.616079684266 310.07680000000005V313.73760000000004Q1518.616079684266 317.9132000000001 1520.7324796842659 320.3728000000001Q1522.848879684266 322.83240000000006 1526.910079684266 322.83240000000006Q1530.971279684266 322.83240000000006 1533.116279684266 320.3728000000001Q1535.2612796842661 317.9132000000001 1535.2612796842661 313.73760000000004V310.07680000000005Q1535.2612796842661 305.9012000000001 1533.116279684266 303.4416000000001Q1530.971279684266 300.9820000000001 1526.910079684266 300.9820000000001Q1522.848879684266 300.9820000000001 1520.7324796842659 303.4416000000001Q1518.616079684266 305.9012000000001 1518.616079684266 310.07680000000005Z" fill="rgb(87,142,251)"/>
  <path d="M1587.198879684266 332.27040000000005Q1577.8180796842662 332.27040000000005 1572.6986796842662 328.03760000000005Q1567.579279684266 323.80480000000006 1567.579279684266 315.73960000000005V292.23040000000003H1580.2204796842661V315.56800000000004Q1580.2204796842661 318.88560000000007 1581.9936796842662 320.85900000000004Q1583.766879684266 322.83240000000006 1587.1416796842661 322.83240000000006Q1590.5164796842662 322.83240000000006 1592.3182796842661 320.83040000000005Q1594.120079684266 318.82840000000004 1594.120079684266 315.56800000000004V292.23040000000003H1606.7612796842661V315.73960000000005Q1606.7612796842661 323.80480000000006 1601.670479684266 328.03760000000005Q1596.579679684266 332.27040000000005 1587.198879684266 332.27040000000005Z" fill="rgb(131,109,236)"/>
  <path d="M1657.554879684266 315.1104000000001 1666.3064796842662 331.58400000000006H1652.1208796842661L1645.1424796842662 317.2268000000001H1640.4520796842662V331.58400000000006H1627.8108796842662V292.23040000000003H1651.8920796842663Q1656.1248796842663 292.23040000000003 1659.1278796842662 293.86060000000003Q1662.1308796842661 295.49080000000004 1663.646679684266 298.26500000000004Q1665.1624796842661 301.03920000000005 1665.1624796842661 304.29960000000005Q1665.1624796842661 307.9032000000001 1663.2176796842662 310.82040000000006Q1661.2728796842662 313.73760000000004 1657.554879684266 315.1104000000001ZM1648.746079684266 301.21080000000006H1640.4520796842662V308.4752000000001H1648.746079684266Q1650.233279684266 308.4752000000001 1651.2628796842662 307.4170000000001Q1652.2924796842663 306.3588000000001 1652.2924796842663 304.81440000000003Q1652.2924796842663 303.27000000000004 1651.2628796842662 302.2404Q1650.233279684266 301.21080000000006 1648.746079684266 301.21080000000006Z" fill="rgb(178,92,215)"/>
  <path d="M1684.1528796842663 331.58400000000006V320.2012000000001H1696.2792796842664V331.58400000000006Z" fill="rgb(225,91,189)"/>
</svg>